<?xml version="1.0" standalone="no"?>
<!DOCTYPE svg PUBLIC "-//W3C//DTD SVG 20010904//EN"
 "http://www.w3.org/TR/2001/REC-SVG-20010904/DTD/svg10.dtd">
<svg version="1.0" xmlns="http://www.w3.org/2000/svg"
 width="403.000000pt" height="125.000000pt" viewBox="0 0 403.000000 125.000000"
 preserveAspectRatio="xMidYMid meet">

<g transform="translate(0.000000,125.000000) scale(0.100000,-0.100000)"
fill="#000000" stroke="none">
<path d="M0 625 l0 -625 2015 0 2015 0 0 625 0 625 -2015 0 -2015 0 0 -625z
m1369 211 c-3 -3 -11 5 -18 17 -13 21 -12 21 5 5 10 -10 16 -20 13 -22z m655
-27 l-29 -31 33 4 c40 6 50 -5 22 -25 -19 -13 -19 -14 8 -28 55 -28 54 -33
-12 -77 -60 -39 -63 -40 -109 -29 -40 9 -50 8 -63 -5 -12 -12 -24 -14 -52 -7
-20 4 -38 7 -41 5 -4 -1 -19 11 -35 26 l-29 28 27 0 c16 0 25 4 21 10 -4 6
-15 8 -24 5 -10 -3 -31 1 -47 10 -24 12 -26 15 -8 15 20 0 43 18 68 54 11 16
15 17 34 5 20 -13 20 -14 4 -33 -16 -18 -16 -19 2 -13 13 5 17 3 13 -7 -4 -10
-1 -13 7 -10 8 3 16 -4 20 -18 6 -22 7 -23 21 -4 14 18 30 25 62 28 7 1 14 7
17 15 3 7 17 18 31 23 15 6 23 15 19 23 -3 8 8 26 26 41 43 35 50 33 14 -5z
m-367 9 c6 -7 13 -32 17 -55 5 -36 3 -42 -15 -48 -16 -5 -18 -9 -8 -21 6 -8
10 -16 8 -17 -2 -2 -26 -20 -52 -41 -47 -37 -51 -39 -92 -29 -30 7 -47 7 -55
-1 -7 -7 -10 -6 -11 4 0 8 -2 25 -5 38 -2 14 0 21 6 17 6 -3 14 4 19 17 6 13
10 19 10 14 1 -5 10 -1 21 9 11 10 17 22 14 27 -3 4 -2 8 3 7 4 -1 15 -1 23 0
12 1 13 3 1 10 -11 7 -9 12 10 21 13 7 34 24 46 37 24 26 45 29 60 11z m734
-24 c-35 -29 -40 -47 -13 -42 11 2 20 0 20 -4 1 -5 -2 -8 -8 -8 -5 0 -10 -4
-10 -10 0 -5 4 -10 8 -10 5 0 17 -7 28 -16 10 -8 13 -13 7 -9 -7 3 -13 1 -13
-6 0 -6 8 -9 20 -6 24 6 25 3 4 -18 -15 -15 -17 -14 -28 6 -9 18 -20 23 -59
24 -61 3 -69 11 -27 28 18 8 28 17 22 21 -11 7 53 76 70 76 5 0 -4 -12 -21
-26z m-188 -26 c-21 -35 -69 -69 -89 -61 -19 7 -7 23 17 23 10 0 19 4 19 8 0
5 9 18 20 30 12 12 17 22 13 22 -4 0 -1 4 7 9 25 16 31 1 13 -31z m-123 -18
c0 -5 -4 -10 -10 -10 -5 0 -10 5 -10 10 0 6 5 10 10 10 6 0 10 -4 10 -10z
m230 0 c0 -5 -5 -10 -11 -10 -5 0 -7 5 -4 10 3 6 8 10 11 10 2 0 4 -4 4 -10z
m-1100 -10 c0 -5 -5 -10 -11 -10 -5 0 -7 5 -4 10 3 6 8 10 11 10 2 0 4 -4 4
-10z m1404 -5 c18 -13 18 -14 -2 -12 -11 0 -19 4 -16 8 2 4 -2 10 -8 12 -7 3
-8 6 -3 6 6 0 18 -6 29 -14z m-1250 -10 c-4 -8 -11 -15 -16 -15 -6 0 -5 6 2
15 7 8 14 15 16 15 2 0 1 -7 -2 -15z m1443 -61 c11 -56 6 -78 -19 -82 -19 -3
-88 36 -88 50 0 6 -7 7 -16 4 -14 -5 -15 -4 -4 9 11 13 8 15 -19 15 -17 0 -31
4 -31 9 0 14 18 23 24 12 3 -5 17 -12 32 -15 19 -5 30 -1 44 16 l19 23 1 -22
c0 -13 5 -23 11 -23 5 0 7 5 4 11 -4 5 -1 24 6 41 15 36 23 25 36 -48z m-527
54 c0 -4 -4 -8 -9 -8 -6 0 -12 4 -15 8 -3 5 1 9 9 9 8 0 15 -4 15 -9z m-1140
-53 c-38 -39 -60 -45 -60 -15 0 13 5 18 15 14 8 -3 26 4 41 15 40 32 42 25 4
-14z m80 0 c-13 -14 -26 -23 -28 -20 -5 5 36 45 46 45 3 0 -5 -11 -18 -25z
m140 5 c6 -11 7 -20 2 -20 -6 0 -12 9 -15 20 -3 11 -3 20 -1 20 2 0 8 -9 14
-20z m955 -5 c11 1 25 4 32 8 6 4 14 3 17 -2 8 -12 -20 -22 -39 -15 -10 4 -15
0 -15 -15 0 -26 14 -27 51 0 25 17 29 18 29 4 0 -9 -4 -14 -9 -11 -5 4 -11 1
-13 -6 -5 -15 -42 -20 -72 -8 -19 7 -24 16 -24 41 1 25 3 29 12 18 6 -8 20
-14 31 -14z m-620 -13 c-3 -3 -11 0 -18 7 -9 10 -8 11 6 5 10 -3 15 -9 12 -12z
m1160 -12 c-3 -5 -14 -10 -23 -10 -15 0 -15 2 -2 10 20 13 33 13 25 0z m-1475
-54 c0 -3 -4 -8 -10 -11 -5 -3 -10 -1 -10 4 0 6 5 11 10 11 6 0 10 -2 10 -4z
m-264 -46 c-20 -23 -39 -54 -43 -70 -5 -27 -10 -30 -42 -30 -20 0 -52 3 -72 6
-31 5 -36 10 -37 35 -1 24 4 30 26 34 15 3 65 19 112 34 47 16 87 29 89 30 2
0 -13 -17 -33 -39z m344 30 c0 -5 -4 -10 -10 -10 -5 0 -10 5 -10 10 0 6 5 10
10 10 6 0 10 -4 10 -10z m92 -26 c-23 -19 -42 -41 -42 -48 0 -7 -7 -21 -15
-32 -13 -18 -14 -16 -9 16 3 19 0 42 -5 50 -9 13 -12 13 -23 -2 -7 -10 -31
-24 -53 -33 -31 -12 -36 -12 -22 -2 9 8 17 18 17 23 0 9 149 61 179 63 8 1 -4
-15 -27 -35z m468 32 c0 -2 -18 -15 -40 -30 -22 -14 -42 -37 -46 -51 -8 -33
-49 -35 -50 -2 0 12 -2 28 -5 36 -3 10 15 19 61 32 73 19 80 21 80 15z m310
-26 c0 -5 -4 -10 -10 -10 -5 0 -10 5 -10 10 0 6 5 10 10 10 6 0 10 -4 10 -10z
m-1462 -72 c17 -17 15 -30 -5 -24 -10 2 -49 8 -88 11 -50 6 -64 10 -50 16 31
12 130 10 143 -3z m754 -64 c19 -10 54 -14 116 -13 49 1 98 -4 110 -10 30 -16
42 -14 42 9 0 24 28 27 45 4 8 -12 28 -16 76 -17 35 0 51 -2 34 -4 -16 -2 -37
-6 -45 -9 -13 -4 -13 -6 0 -15 11 -7 0 -8 -35 -3 -27 5 -77 9 -110 9 -33 0
-62 3 -65 7 -8 10 -224 20 -239 10 -10 -7 -10 -14 -2 -30 19 -35 14 -41 -24
-29 -26 8 -35 16 -35 32 0 32 -19 44 -73 47 -26 2 -49 9 -52 16 -2 6 -17 13
-32 14 -15 1 8 4 52 7 94 7 199 -4 237 -25z m-546 -11 c1 -16 5 -38 9 -50 6
-20 4 -23 -19 -23 -16 0 -25 4 -21 10 4 6 -5 10 -19 10 -14 0 -26 3 -26 8 0 4
-13 16 -29 27 l-30 19 27 12 c15 7 45 13 67 13 37 1 40 -1 41 -26z m257 10
c-18 -2 -48 -2 -65 0 -18 2 -4 4 32 4 36 0 50 -2 33 -4z m57 -70 c0 -12 -4
-25 -10 -28 -6 -4 -10 11 -10 37 0 31 3 39 10 28 5 -8 10 -25 10 -37z m913 15
c32 -2 56 -7 55 -13 -4 -12 -222 -8 -265 5 l-28 8 35 2 c19 1 56 1 83 0 33 -1
47 2 47 12 0 10 2 10 8 1 4 -6 33 -13 65 -15z m-739 -84 c11 -29 6 -34 -19
-18 -14 9 -22 20 -19 25 9 14 31 10 38 -7z m-197 -16 c-3 -8 -6 -5 -6 6 -1 11
2 17 5 13 3 -3 4 -12 1 -19z m143 -3 c0 -14 -4 -25 -10 -25 -11 0 -14 33 -3
43 11 11 13 8 13 -18z"/>
<path d="M1737 713 c-4 -3 -7 -11 -7 -17 0 -6 5 -5 12 2 6 6 9 14 7 17 -3 3
-9 2 -12 -2z"/>
<path d="M1988 709 c4 -4 17 -10 29 -14 18 -5 22 -3 17 9 -3 9 -16 15 -30 14
-13 -1 -20 -5 -16 -9z"/>
<path d="M1628 803 c6 -2 18 -2 25 0 6 3 1 5 -13 5 -14 0 -19 -2 -12 -5z"/>
<path d="M1594 776 c-30 -23 -12 -27 21 -6 18 12 24 20 14 20 -8 0 -24 -6 -35
-14z"/>
<path d="M1561 665 c-19 -13 -38 -22 -43 -19 -4 3 -8 -2 -8 -11 0 -14 3 -14
31 2 27 16 69 54 58 53 -2 -1 -19 -12 -38 -25z"/>
</g>
</svg>
